# xmcd
#
# Track frame offsets:
#	182
#	20737
#	39667
#	55022
#	77745
#	93332
#	107577
#	125390
#	135797
#	150547
#	162495
#	188745
#	202535
#	213197
#	237052
#
# Disc length: 3387 seconds
#
# Revision: 5
# Processed by: cddbd v1.5.2PL0 Copyright (c) Steve Scherf et al.
# Submitted via: audiograbber 1.83.01
#
DISCID=b00d390f
DTITLE=Boogie Woogie Masters - Boogie Woogie
DYEAR=1988
DGENRE=Blues
TTITLE0=01 - Pinetop Perkins - Pinetop's Boogie Woogie
TTITLE1=02 - Sammy Price - Memories Boogie
TTITLE2=03 - Milt Buckner - Black and Blue Boogie
TTITLE3=04 - Lafayette Leake - Train Boogie
TTITLE4=05 - Jay McShann - Roll'em
TTITLE5=06 - Willie Mabon - I Enjoyed Myself In Pau
TTITLE6=07 - Sammy Price - Riffin'Boogie
TTITLE7=08 - Memphis Slim - Boogie For Meade
TTITLE8=09 - Luther Johnson - Boogin' In The Dark
TTITLE9=10 - Pat Flowers - Boogie Woogie No. 2
TTITLE10=11 - Willie Mabon - Riverboat
TTITLE11=12 - Llyod Glenn - Honky Tonk Train Blues
TTITLE12=13 - Joe Turner - Rejane Boogie
TTITLE13=14 - Pinetop Perkins - Rockin' The Boogie
TTITLE14=15 - Memphis Slim - Boogie For Pinetop
EXTD=YEAR: 1988
EXTT0=
EXTT1=
EXTT2=
EXTT3=
EXTT4=
EXTT5=
EXTT6=
EXTT7=
EXTT8=
EXTT9=
EXTT10=
EXTT11=
EXTT12=
EXTT13=
EXTT14=
PLAYORDER=
